<?xml version="1.0" standalone="no"?>
<!DOCTYPE svg PUBLIC "-//W3C//DTD SVG 20010904//EN"
 "http://www.w3.org/TR/2001/REC-SVG-20010904/DTD/svg10.dtd">
<svg version="1.0" xmlns="http://www.w3.org/2000/svg"
 width="520.000000pt" height="520.000000pt" viewBox="0 0 520.000000 520.000000"
 preserveAspectRatio="xMidYMid meet">

<g transform="translate(0.000000,520.000000) scale(0.100000,-0.100000)"
fill="#000000" stroke="none">
<path d="M2096 5114 c-310 -56 -623 -256 -805 -514 -55 -77 -143 -246 -162
-310 -11 -36 -13 -37 -108 -64 -53 -14 -146 -51 -207 -80 -354 -173 -595 -484
-690 -891 -15 -64 -19 -117 -18 -270 0 -172 3 -199 27 -287 51 -192 130 -355
237 -489 l56 -71 -22 -85 c-115 -430 14 -893 341 -1218 184 -183 386 -293 650
-350 103 -23 332 -29 432 -12 l82 13 64 -61 c181 -173 396 -286 652 -341 121
-26 359 -24 492 5 181 38 348 110 493 212 96 67 231 203 299 299 55 77 143
246 162 310 11 36 13 37 108 63 117 33 312 128 405 199 244 184 409 438 487
752 29 116 36 348 15 481 -37 224 -141 454 -281 617 l-31 37 23 93 c90 355 26
710 -183 1023 -184 276 -486 475 -822 542 -103 20 -356 23 -444 5 l-58 -11
-70 68 c-173 170 -416 294 -654 336 -111 19 -361 19 -470 -1z m416 -328 c133
-26 313 -106 401 -179 l28 -24 -517 -299 c-285 -164 -531 -309 -547 -323 -59
-49 -57 -26 -57 -816 0 -399 -2 -725 -4 -725 -2 0 -100 56 -218 124 l-213 123
0 654 c1 642 1 656 23 743 92 367 369 642 721 717 106 22 282 24 383 5z m1277
-412 c362 -90 642 -397 701 -767 12 -72 11 -289 -1 -302 -3 -3 -233 126 -510
286 -277 161 -524 301 -548 311 -30 14 -56 19 -82 15 -26 -3 -238 -120 -663
-366 -344 -199 -628 -361 -631 -361 -3 0 -5 112 -5 248 l0 249 523 301 c287
166 556 317 597 336 186 86 405 103 619 50z m-2731 -1751 c1 -1 16 -18 32 -37
21 -23 232 -151 650 -392 341 -197 620 -360 620 -363 0 -4 -97 -61 -214 -129
l-213 -122 -525 303 c-288 167 -545 318 -570 335 -130 89 -233 212 -309 367
-69 141 -93 247 -93 410 0 142 11 208 56 332 84 232 282 443 508 540 l45 19 5
-630 c3 -347 7 -632 8 -633z m2755 681 c279 -162 528 -307 552 -324 127 -87
236 -218 309 -371 172 -358 103 -782 -175 -1066 -84 -86 -155 -138 -259 -191
l-85 -42 -5 627 c-4 451 -8 634 -17 648 -6 11 -24 32 -40 46 -15 14 -304 185
-640 379 -337 194 -613 356 -613 359 1 3 96 61 213 127 178 102 215 120 232
111 11 -5 249 -142 528 -303z m-925 -236 l262 -152 0 -317 0 -316 -271 -157
c-149 -86 -275 -156 -279 -156 -4 0 -130 70 -279 156 l-271 157 0 316 0 317
272 157 c160 92 279 155 288 152 8 -4 133 -74 278 -157z m741 -428 l182 -105
-4 -685 c-3 -678 -3 -686 -25 -760 -99 -329 -360 -581 -687 -666 -180 -46
-395 -33 -573 36 -74 29 -185 91 -235 132 l-28 23 524 303 c288 166 535 315
550 330 14 15 31 40 36 55 8 19 11 265 11 753 l0 724 33 -17 c19 -10 115 -65
216 -123z m-479 -879 l0 -249 -537 -310 c-296 -170 -566 -322 -601 -336 -143
-60 -329 -86 -476 -67 -488 65 -839 463 -835 946 2 182 -59 198 509 -131 606
-350 582 -338 636 -331 34 3 180 84 666 365 343 198 626 361 631 361 4 1 7
-111 7 -248z"/>
</g>
</svg>
